<mxfile host="app.diagrams.net" modified="2020-09-07T21:57:17.908Z" agent="5.0 (Windows)" etag="OXUJ9AzwHwFrRLmifcPe" version="13.6.6" type="github">
  <diagram id="C5RBs43oDa-KdzZeNtuy" name="Page-1">
    <mxGraphModel dx="844" dy="790" grid="1" gridSize="10" guides="1" tooltips="1" connect="1" arrows="1" fold="1" page="1" pageScale="1" pageWidth="827" pageHeight="1169" math="0" shadow="0">
      <root>
        <mxCell id="WIyWlLk6GJQsqaUBKTNV-0" />
        <mxCell id="WIyWlLk6GJQsqaUBKTNV-1" parent="WIyWlLk6GJQsqaUBKTNV-0" />
        <mxCell id="MPr-k5P9dpA4DX_AVp9k-24" value="" style="endArrow=block;endSize=16;endFill=0;html=1;exitX=0.5;exitY=0;exitDx=0;exitDy=0;" parent="WIyWlLk6GJQsqaUBKTNV-1" source="MPr-k5P9dpA4DX_AVp9k-20" target="MPr-k5P9dpA4DX_AVp9k-19" edge="1">
          <mxGeometry width="160" relative="1" as="geometry">
            <mxPoint x="318" y="1530" as="sourcePoint" />
            <mxPoint x="153" y="1451" as="targetPoint" />
          </mxGeometry>
        </mxCell>
        <mxCell id="MPr-k5P9dpA4DX_AVp9k-49" value="" style="endArrow=block;dashed=1;endFill=0;endSize=12;html=1;exitX=0;exitY=0.5;exitDx=0;exitDy=0;" parent="WIyWlLk6GJQsqaUBKTNV-1" source="MPr-k5P9dpA4DX_AVp9k-48" edge="1">
          <mxGeometry width="160" relative="1" as="geometry">
            <mxPoint x="318" y="1530" as="sourcePoint" />
            <mxPoint x="258" y="1580" as="targetPoint" />
          </mxGeometry>
        </mxCell>
        <mxCell id="MPr-k5P9dpA4DX_AVp9k-63" value="" style="group" parent="WIyWlLk6GJQsqaUBKTNV-1" vertex="1" connectable="0">
          <mxGeometry x="730" y="1530" width="180" height="100" as="geometry" />
        </mxCell>
        <mxCell id="MPr-k5P9dpA4DX_AVp9k-65" value="" style="group" parent="MPr-k5P9dpA4DX_AVp9k-63" vertex="1" connectable="0">
          <mxGeometry x="-190" width="180" height="100" as="geometry" />
        </mxCell>
        <mxCell id="MPr-k5P9dpA4DX_AVp9k-48" value="" style="html=1;" parent="MPr-k5P9dpA4DX_AVp9k-65" vertex="1">
          <mxGeometry width="180" height="100" as="geometry" />
        </mxCell>
        <mxCell id="MPr-k5P9dpA4DX_AVp9k-57" value="«interface»" style="text;align=center;fontStyle=2;verticalAlign=middle;spacingLeft=3;spacingRight=3;strokeColor=none;rotatable=0;points=[[0,0.5],[1,0.5]];portConstraint=eastwest;" parent="MPr-k5P9dpA4DX_AVp9k-65" vertex="1">
          <mxGeometry x="48" y="10" width="80" height="26" as="geometry" />
        </mxCell>
        <mxCell id="MPr-k5P9dpA4DX_AVp9k-60" value="Moving" style="text;align=center;fontStyle=1;verticalAlign=middle;spacingLeft=3;spacingRight=3;strokeColor=none;rotatable=0;points=[[0,0.5],[1,0.5]];portConstraint=eastwest;" parent="MPr-k5P9dpA4DX_AVp9k-65" vertex="1">
          <mxGeometry x="48" y="26" width="80" height="26" as="geometry" />
        </mxCell>
        <mxCell id="MPr-k5P9dpA4DX_AVp9k-62" value="" style="line;strokeWidth=1;fillColor=none;align=left;verticalAlign=middle;spacingTop=-1;spacingLeft=3;spacingRight=3;rotatable=0;labelPosition=right;points=[];portConstraint=eastwest;" parent="MPr-k5P9dpA4DX_AVp9k-65" vertex="1">
          <mxGeometry y="70" width="180" height="8" as="geometry" />
        </mxCell>
        <mxCell id="MPr-k5P9dpA4DX_AVp9k-55" value="+move(velocity:Vector2d):void" style="text;strokeColor=none;fillColor=none;align=left;verticalAlign=top;spacingLeft=4;spacingRight=4;overflow=hidden;rotatable=0;points=[[0,0.5],[1,0.5]];portConstraint=eastwest;" parent="MPr-k5P9dpA4DX_AVp9k-65" vertex="1">
          <mxGeometry y="74" width="176" height="26" as="geometry" />
        </mxCell>
        <mxCell id="MPr-k5P9dpA4DX_AVp9k-114" value="" style="strokeWidth=1;html=1;shape=mxgraph.flowchart.annotation_2;align=left;labelPosition=right;pointerEvents=1;fillColor=none;gradientColor=none;rotation=90;" parent="WIyWlLk6GJQsqaUBKTNV-1" vertex="1">
          <mxGeometry x="369" y="150" width="60" height="540" as="geometry" />
        </mxCell>
        <mxCell id="MPr-k5P9dpA4DX_AVp9k-115" value="" style="endArrow=block;endSize=16;endFill=0;html=1;exitX=0.493;exitY=0.499;exitDx=0;exitDy=0;exitPerimeter=0;entryX=0.45;entryY=0.985;entryDx=0;entryDy=0;entryPerimeter=0;strokeWidth=1;" parent="WIyWlLk6GJQsqaUBKTNV-1" source="MPr-k5P9dpA4DX_AVp9k-114" target="MPr-k5P9dpA4DX_AVp9k-80" edge="1">
          <mxGeometry x="0.125" width="160" relative="1" as="geometry">
            <mxPoint x="259" y="660" as="sourcePoint" />
            <mxPoint x="419" y="660" as="targetPoint" />
            <Array as="points">
              <mxPoint x="399" y="380" />
            </Array>
            <mxPoint x="-1" as="offset" />
          </mxGeometry>
        </mxCell>
        <mxCell id="MPr-k5P9dpA4DX_AVp9k-125" value="" style="endArrow=block;endSize=16;endFill=0;html=1;strokeWidth=1;exitX=0.5;exitY=0;exitDx=0;exitDy=0;entryX=0.5;entryY=1;entryDx=0;entryDy=0;" parent="WIyWlLk6GJQsqaUBKTNV-1" source="MPr-k5P9dpA4DX_AVp9k-116" target="MPr-k5P9dpA4DX_AVp9k-81" edge="1">
          <mxGeometry x="-0.1176" y="-15" width="160" relative="1" as="geometry">
            <mxPoint x="549" y="790" as="sourcePoint" />
            <mxPoint x="709" y="790" as="targetPoint" />
            <mxPoint as="offset" />
          </mxGeometry>
        </mxCell>
        <mxCell id="MPr-k5P9dpA4DX_AVp9k-66" value="&lt;&lt;abstract&gt;&gt; Shape" style="swimlane;fontStyle=3;align=center;verticalAlign=top;childLayout=stackLayout;horizontal=1;startSize=26;horizontalStack=0;resizeParent=1;resizeParentMax=0;resizeLast=0;collapsible=1;marginBottom=0;" parent="WIyWlLk6GJQsqaUBKTNV-1" vertex="1">
          <mxGeometry x="309" y="20" width="200" height="320" as="geometry" />
        </mxCell>
        <mxCell id="MPr-k5P9dpA4DX_AVp9k-67" value="#color:String" style="text;strokeColor=none;fillColor=none;align=left;verticalAlign=top;spacingLeft=4;spacingRight=4;overflow=hidden;rotatable=0;points=[[0,0.5],[1,0.5]];portConstraint=eastwest;" parent="MPr-k5P9dpA4DX_AVp9k-66" vertex="1">
          <mxGeometry y="26" width="200" height="26" as="geometry" />
        </mxCell>
        <mxCell id="MPr-k5P9dpA4DX_AVp9k-70" value="#filled:boolean" style="text;strokeColor=none;fillColor=none;align=left;verticalAlign=top;spacingLeft=4;spacingRight=4;overflow=hidden;rotatable=0;points=[[0,0.5],[1,0.5]];portConstraint=eastwest;" parent="MPr-k5P9dpA4DX_AVp9k-66" vertex="1">
          <mxGeometry y="52" width="200" height="26" as="geometry" />
        </mxCell>
        <mxCell id="MPr-k5P9dpA4DX_AVp9k-68" value="" style="line;strokeWidth=1;fillColor=none;align=left;verticalAlign=middle;spacingTop=-1;spacingLeft=3;spacingRight=3;rotatable=0;labelPosition=right;points=[];portConstraint=eastwest;" parent="MPr-k5P9dpA4DX_AVp9k-66" vertex="1">
          <mxGeometry y="78" width="200" height="8" as="geometry" />
        </mxCell>
        <mxCell id="MPr-k5P9dpA4DX_AVp9k-69" value="+Shape()" style="text;strokeColor=none;fillColor=none;align=left;verticalAlign=top;spacingLeft=4;spacingRight=4;overflow=hidden;rotatable=0;points=[[0,0.5],[1,0.5]];portConstraint=eastwest;" parent="MPr-k5P9dpA4DX_AVp9k-66" vertex="1">
          <mxGeometry y="86" width="200" height="26" as="geometry" />
        </mxCell>
        <mxCell id="MPr-k5P9dpA4DX_AVp9k-71" value="+Shape(color:String,filled:boolean)" style="text;strokeColor=none;fillColor=none;align=left;verticalAlign=top;spacingLeft=4;spacingRight=4;overflow=hidden;rotatable=0;points=[[0,0.5],[1,0.5]];portConstraint=eastwest;" parent="MPr-k5P9dpA4DX_AVp9k-66" vertex="1">
          <mxGeometry y="112" width="200" height="26" as="geometry" />
        </mxCell>
        <mxCell id="MPr-k5P9dpA4DX_AVp9k-72" value="+getColor():String" style="text;strokeColor=none;fillColor=none;align=left;verticalAlign=top;spacingLeft=4;spacingRight=4;overflow=hidden;rotatable=0;points=[[0,0.5],[1,0.5]];portConstraint=eastwest;" parent="MPr-k5P9dpA4DX_AVp9k-66" vertex="1">
          <mxGeometry y="138" width="200" height="26" as="geometry" />
        </mxCell>
        <mxCell id="MPr-k5P9dpA4DX_AVp9k-75" value="+setColor(color:String):void" style="text;strokeColor=none;fillColor=none;align=left;verticalAlign=top;spacingLeft=4;spacingRight=4;overflow=hidden;rotatable=0;points=[[0,0.5],[1,0.5]];portConstraint=eastwest;" parent="MPr-k5P9dpA4DX_AVp9k-66" vertex="1">
          <mxGeometry y="164" width="200" height="26" as="geometry" />
        </mxCell>
        <mxCell id="MPr-k5P9dpA4DX_AVp9k-76" value="+isFilled():boolean" style="text;strokeColor=none;fillColor=none;align=left;verticalAlign=top;spacingLeft=4;spacingRight=4;overflow=hidden;rotatable=0;points=[[0,0.5],[1,0.5]];portConstraint=eastwest;" parent="MPr-k5P9dpA4DX_AVp9k-66" vertex="1">
          <mxGeometry y="190" width="200" height="26" as="geometry" />
        </mxCell>
        <mxCell id="MPr-k5P9dpA4DX_AVp9k-77" value="+setFilled(filled:boolean):void" style="text;strokeColor=none;fillColor=none;align=left;verticalAlign=top;spacingLeft=4;spacingRight=4;overflow=hidden;rotatable=0;points=[[0,0.5],[1,0.5]];portConstraint=eastwest;" parent="MPr-k5P9dpA4DX_AVp9k-66" vertex="1">
          <mxGeometry y="216" width="200" height="26" as="geometry" />
        </mxCell>
        <mxCell id="MPr-k5P9dpA4DX_AVp9k-78" value="+getArea():double" style="text;strokeColor=none;fillColor=none;align=left;verticalAlign=top;spacingLeft=4;spacingRight=4;overflow=hidden;rotatable=0;points=[[0,0.5],[1,0.5]];portConstraint=eastwest;fontStyle=3" parent="MPr-k5P9dpA4DX_AVp9k-66" vertex="1">
          <mxGeometry y="242" width="200" height="26" as="geometry" />
        </mxCell>
        <mxCell id="MPr-k5P9dpA4DX_AVp9k-79" value="+getPerimeter():double" style="text;strokeColor=none;fillColor=none;align=left;verticalAlign=top;spacingLeft=4;spacingRight=4;overflow=hidden;rotatable=0;points=[[0,0.5],[1,0.5]];portConstraint=eastwest;fontStyle=3" parent="MPr-k5P9dpA4DX_AVp9k-66" vertex="1">
          <mxGeometry y="268" width="200" height="26" as="geometry" />
        </mxCell>
        <mxCell id="MPr-k5P9dpA4DX_AVp9k-80" value="+toString():String" style="text;strokeColor=none;fillColor=none;align=left;verticalAlign=top;spacingLeft=4;spacingRight=4;overflow=hidden;rotatable=0;points=[[0,0.5],[1,0.5]];portConstraint=eastwest;fontStyle=3" parent="MPr-k5P9dpA4DX_AVp9k-66" vertex="1">
          <mxGeometry y="294" width="200" height="26" as="geometry" />
        </mxCell>
        <mxCell id="MPr-k5P9dpA4DX_AVp9k-96" value="Triangle" style="swimlane;fontStyle=1;align=center;verticalAlign=top;childLayout=stackLayout;horizontal=1;startSize=26;horizontalStack=0;resizeParent=1;resizeParentMax=0;resizeLast=0;collapsible=1;marginBottom=0;fillColor=none;gradientColor=none;" parent="WIyWlLk6GJQsqaUBKTNV-1" vertex="1">
          <mxGeometry x="39" y="450" width="200" height="444" as="geometry" />
        </mxCell>
        <mxCell id="MPr-k5P9dpA4DX_AVp9k-97" value="#A:Point" style="text;strokeColor=none;fillColor=none;align=left;verticalAlign=top;spacingLeft=4;spacingRight=4;overflow=hidden;rotatable=0;points=[[0,0.5],[1,0.5]];portConstraint=eastwest;" parent="MPr-k5P9dpA4DX_AVp9k-96" vertex="1">
          <mxGeometry y="26" width="200" height="26" as="geometry" />
        </mxCell>
        <mxCell id="MPr-k5P9dpA4DX_AVp9k-101" value="#B:Point" style="text;strokeColor=none;fillColor=none;align=left;verticalAlign=top;spacingLeft=4;spacingRight=4;overflow=hidden;rotatable=0;points=[[0,0.5],[1,0.5]];portConstraint=eastwest;" parent="MPr-k5P9dpA4DX_AVp9k-96" vertex="1">
          <mxGeometry y="52" width="200" height="26" as="geometry" />
        </mxCell>
        <mxCell id="MPr-k5P9dpA4DX_AVp9k-100" value="#C:Point" style="text;strokeColor=none;fillColor=none;align=left;verticalAlign=top;spacingLeft=4;spacingRight=4;overflow=hidden;rotatable=0;points=[[0,0.5],[1,0.5]];portConstraint=eastwest;" parent="MPr-k5P9dpA4DX_AVp9k-96" vertex="1">
          <mxGeometry y="78" width="200" height="26" as="geometry" />
        </mxCell>
        <mxCell id="MPr-k5P9dpA4DX_AVp9k-98" value="" style="line;strokeWidth=1;fillColor=none;align=left;verticalAlign=middle;spacingTop=-1;spacingLeft=3;spacingRight=3;rotatable=0;labelPosition=right;points=[];portConstraint=eastwest;" parent="MPr-k5P9dpA4DX_AVp9k-96" vertex="1">
          <mxGeometry y="104" width="200" height="8" as="geometry" />
        </mxCell>
        <mxCell id="MPr-k5P9dpA4DX_AVp9k-99" value="+Triangle()" style="text;strokeColor=none;fillColor=none;align=left;verticalAlign=top;spacingLeft=4;spacingRight=4;overflow=hidden;rotatable=0;points=[[0,0.5],[1,0.5]];portConstraint=eastwest;" parent="MPr-k5P9dpA4DX_AVp9k-96" vertex="1">
          <mxGeometry y="112" width="200" height="26" as="geometry" />
        </mxCell>
        <mxCell id="MPr-k5P9dpA4DX_AVp9k-102" value="+Triangle(A:Point,B:Point,C:Point)" style="text;strokeColor=none;fillColor=none;align=left;verticalAlign=top;spacingLeft=4;spacingRight=4;overflow=hidden;rotatable=0;points=[[0,0.5],[1,0.5]];portConstraint=eastwest;" parent="MPr-k5P9dpA4DX_AVp9k-96" vertex="1">
          <mxGeometry y="138" width="200" height="26" as="geometry" />
        </mxCell>
        <mxCell id="MPr-k5P9dpA4DX_AVp9k-103" value="+Triangle(A:Point,B:Point,C:Point,&#xa;color:String,filled:boolean)&#xa;" style="text;strokeColor=none;fillColor=none;align=left;verticalAlign=top;spacingLeft=4;spacingRight=4;overflow=hidden;rotatable=0;points=[[0,0.5],[1,0.5]];portConstraint=eastwest;" parent="MPr-k5P9dpA4DX_AVp9k-96" vertex="1">
          <mxGeometry y="164" width="200" height="46" as="geometry" />
        </mxCell>
        <mxCell id="MPr-k5P9dpA4DX_AVp9k-104" value="+getA():Point" style="text;strokeColor=none;fillColor=none;align=left;verticalAlign=top;spacingLeft=4;spacingRight=4;overflow=hidden;rotatable=0;points=[[0,0.5],[1,0.5]];portConstraint=eastwest;" parent="MPr-k5P9dpA4DX_AVp9k-96" vertex="1">
          <mxGeometry y="210" width="200" height="26" as="geometry" />
        </mxCell>
        <mxCell id="MPr-k5P9dpA4DX_AVp9k-105" value="+setA(A:Point):void" style="text;strokeColor=none;fillColor=none;align=left;verticalAlign=top;spacingLeft=4;spacingRight=4;overflow=hidden;rotatable=0;points=[[0,0.5],[1,0.5]];portConstraint=eastwest;" parent="MPr-k5P9dpA4DX_AVp9k-96" vertex="1">
          <mxGeometry y="236" width="200" height="26" as="geometry" />
        </mxCell>
        <mxCell id="MPr-k5P9dpA4DX_AVp9k-106" value="+getB():Point" style="text;strokeColor=none;fillColor=none;align=left;verticalAlign=top;spacingLeft=4;spacingRight=4;overflow=hidden;rotatable=0;points=[[0,0.5],[1,0.5]];portConstraint=eastwest;" parent="MPr-k5P9dpA4DX_AVp9k-96" vertex="1">
          <mxGeometry y="262" width="200" height="26" as="geometry" />
        </mxCell>
        <mxCell id="MPr-k5P9dpA4DX_AVp9k-107" value="+setB(B:Point):void" style="text;strokeColor=none;fillColor=none;align=left;verticalAlign=top;spacingLeft=4;spacingRight=4;overflow=hidden;rotatable=0;points=[[0,0.5],[1,0.5]];portConstraint=eastwest;" parent="MPr-k5P9dpA4DX_AVp9k-96" vertex="1">
          <mxGeometry y="288" width="200" height="26" as="geometry" />
        </mxCell>
        <mxCell id="MPr-k5P9dpA4DX_AVp9k-108" value="+getC():Point" style="text;strokeColor=none;fillColor=none;align=left;verticalAlign=top;spacingLeft=4;spacingRight=4;overflow=hidden;rotatable=0;points=[[0,0.5],[1,0.5]];portConstraint=eastwest;" parent="MPr-k5P9dpA4DX_AVp9k-96" vertex="1">
          <mxGeometry y="314" width="200" height="26" as="geometry" />
        </mxCell>
        <mxCell id="MPr-k5P9dpA4DX_AVp9k-109" value="+setC(C:Point):void" style="text;strokeColor=none;fillColor=none;align=left;verticalAlign=top;spacingLeft=4;spacingRight=4;overflow=hidden;rotatable=0;points=[[0,0.5],[1,0.5]];portConstraint=eastwest;" parent="MPr-k5P9dpA4DX_AVp9k-96" vertex="1">
          <mxGeometry y="340" width="200" height="26" as="geometry" />
        </mxCell>
        <mxCell id="MPr-k5P9dpA4DX_AVp9k-110" value="+getArea():double" style="text;strokeColor=none;fillColor=none;align=left;verticalAlign=top;spacingLeft=4;spacingRight=4;overflow=hidden;rotatable=0;points=[[0,0.5],[1,0.5]];portConstraint=eastwest;fontStyle=3" parent="MPr-k5P9dpA4DX_AVp9k-96" vertex="1">
          <mxGeometry y="366" width="200" height="26" as="geometry" />
        </mxCell>
        <mxCell id="MPr-k5P9dpA4DX_AVp9k-111" value="+getPerimeter():double" style="text;strokeColor=none;fillColor=none;align=left;verticalAlign=top;spacingLeft=4;spacingRight=4;overflow=hidden;rotatable=0;points=[[0,0.5],[1,0.5]];portConstraint=eastwest;fontStyle=3" parent="MPr-k5P9dpA4DX_AVp9k-96" vertex="1">
          <mxGeometry y="392" width="200" height="26" as="geometry" />
        </mxCell>
        <mxCell id="MPr-k5P9dpA4DX_AVp9k-112" value="+toString():String" style="text;strokeColor=none;fillColor=none;align=left;verticalAlign=top;spacingLeft=4;spacingRight=4;overflow=hidden;rotatable=0;points=[[0,0.5],[1,0.5]];portConstraint=eastwest;fontStyle=3" parent="MPr-k5P9dpA4DX_AVp9k-96" vertex="1">
          <mxGeometry y="418" width="200" height="26" as="geometry" />
        </mxCell>
        <mxCell id="MPr-k5P9dpA4DX_AVp9k-81" value="Rectangle" style="swimlane;fontStyle=1;align=center;verticalAlign=top;childLayout=stackLayout;horizontal=1;startSize=26;horizontalStack=0;resizeParent=1;resizeParentMax=0;resizeLast=0;collapsible=1;marginBottom=0;fillColor=none;gradientColor=none;" parent="WIyWlLk6GJQsqaUBKTNV-1" vertex="1">
          <mxGeometry x="499" y="450" width="290" height="362" as="geometry" />
        </mxCell>
        <mxCell id="MPr-k5P9dpA4DX_AVp9k-82" value="#width: double" style="text;strokeColor=none;fillColor=none;align=left;verticalAlign=top;spacingLeft=4;spacingRight=4;overflow=hidden;rotatable=0;points=[[0,0.5],[1,0.5]];portConstraint=eastwest;" parent="MPr-k5P9dpA4DX_AVp9k-81" vertex="1">
          <mxGeometry y="26" width="290" height="26" as="geometry" />
        </mxCell>
        <mxCell id="MPr-k5P9dpA4DX_AVp9k-85" value="#length: double" style="text;strokeColor=none;fillColor=none;align=left;verticalAlign=top;spacingLeft=4;spacingRight=4;overflow=hidden;rotatable=0;points=[[0,0.5],[1,0.5]];portConstraint=eastwest;" parent="MPr-k5P9dpA4DX_AVp9k-81" vertex="1">
          <mxGeometry y="52" width="290" height="26" as="geometry" />
        </mxCell>
        <mxCell id="MPr-k5P9dpA4DX_AVp9k-83" value="" style="line;strokeWidth=1;fillColor=none;align=left;verticalAlign=middle;spacingTop=-1;spacingLeft=3;spacingRight=3;rotatable=0;labelPosition=right;points=[];portConstraint=eastwest;" parent="MPr-k5P9dpA4DX_AVp9k-81" vertex="1">
          <mxGeometry y="78" width="290" height="8" as="geometry" />
        </mxCell>
        <mxCell id="MPr-k5P9dpA4DX_AVp9k-84" value="+Rectangle()" style="text;strokeColor=none;fillColor=none;align=left;verticalAlign=top;spacingLeft=4;spacingRight=4;overflow=hidden;rotatable=0;points=[[0,0.5],[1,0.5]];portConstraint=eastwest;" parent="MPr-k5P9dpA4DX_AVp9k-81" vertex="1">
          <mxGeometry y="86" width="290" height="26" as="geometry" />
        </mxCell>
        <mxCell id="MPr-k5P9dpA4DX_AVp9k-86" value="+Rectangle(width:double, length:double)" style="text;strokeColor=none;fillColor=none;align=left;verticalAlign=top;spacingLeft=4;spacingRight=4;overflow=hidden;rotatable=0;points=[[0,0.5],[1,0.5]];portConstraint=eastwest;" parent="MPr-k5P9dpA4DX_AVp9k-81" vertex="1">
          <mxGeometry y="112" width="290" height="26" as="geometry" />
        </mxCell>
        <mxCell id="MPr-k5P9dpA4DX_AVp9k-87" value="+Rectangle(width:double,length:double&#xa;      color:String,filled:boolean)&#xa;" style="text;strokeColor=none;fillColor=none;align=left;verticalAlign=top;spacingLeft=4;spacingRight=4;overflow=hidden;rotatable=0;points=[[0,0.5],[1,0.5]];portConstraint=eastwest;" parent="MPr-k5P9dpA4DX_AVp9k-81" vertex="1">
          <mxGeometry y="138" width="290" height="42" as="geometry" />
        </mxCell>
        <mxCell id="MPr-k5P9dpA4DX_AVp9k-88" value="+getWidth():double" style="text;strokeColor=none;fillColor=none;align=left;verticalAlign=top;spacingLeft=4;spacingRight=4;overflow=hidden;rotatable=0;points=[[0,0.5],[1,0.5]];portConstraint=eastwest;" parent="MPr-k5P9dpA4DX_AVp9k-81" vertex="1">
          <mxGeometry y="180" width="290" height="26" as="geometry" />
        </mxCell>
        <mxCell id="MPr-k5P9dpA4DX_AVp9k-89" value="+setWidth(width:double):void" style="text;strokeColor=none;fillColor=none;align=left;verticalAlign=top;spacingLeft=4;spacingRight=4;overflow=hidden;rotatable=0;points=[[0,0.5],[1,0.5]];portConstraint=eastwest;" parent="MPr-k5P9dpA4DX_AVp9k-81" vertex="1">
          <mxGeometry y="206" width="290" height="26" as="geometry" />
        </mxCell>
        <mxCell id="MPr-k5P9dpA4DX_AVp9k-90" value="+getLength():double" style="text;strokeColor=none;fillColor=none;align=left;verticalAlign=top;spacingLeft=4;spacingRight=4;overflow=hidden;rotatable=0;points=[[0,0.5],[1,0.5]];portConstraint=eastwest;" parent="MPr-k5P9dpA4DX_AVp9k-81" vertex="1">
          <mxGeometry y="232" width="290" height="26" as="geometry" />
        </mxCell>
        <mxCell id="MPr-k5P9dpA4DX_AVp9k-91" value="+setLength(length:double):void" style="text;strokeColor=none;fillColor=none;align=left;verticalAlign=top;spacingLeft=4;spacingRight=4;overflow=hidden;rotatable=0;points=[[0,0.5],[1,0.5]];portConstraint=eastwest;" parent="MPr-k5P9dpA4DX_AVp9k-81" vertex="1">
          <mxGeometry y="258" width="290" height="26" as="geometry" />
        </mxCell>
        <mxCell id="MPr-k5P9dpA4DX_AVp9k-93" value="+getArea():double" style="text;strokeColor=none;fillColor=none;align=left;verticalAlign=top;spacingLeft=4;spacingRight=4;overflow=hidden;rotatable=0;points=[[0,0.5],[1,0.5]];portConstraint=eastwest;fontStyle=3" parent="MPr-k5P9dpA4DX_AVp9k-81" vertex="1">
          <mxGeometry y="284" width="290" height="26" as="geometry" />
        </mxCell>
        <mxCell id="MPr-k5P9dpA4DX_AVp9k-94" value="+getPerimeter():double" style="text;strokeColor=none;fillColor=none;align=left;verticalAlign=top;spacingLeft=4;spacingRight=4;overflow=hidden;rotatable=0;points=[[0,0.5],[1,0.5]];portConstraint=eastwest;fontStyle=3" parent="MPr-k5P9dpA4DX_AVp9k-81" vertex="1">
          <mxGeometry y="310" width="290" height="26" as="geometry" />
        </mxCell>
        <mxCell id="MPr-k5P9dpA4DX_AVp9k-95" value="+toString():String" style="text;strokeColor=none;fillColor=none;align=left;verticalAlign=top;spacingLeft=4;spacingRight=4;overflow=hidden;rotatable=0;points=[[0,0.5],[1,0.5]];portConstraint=eastwest;fontStyle=3" parent="MPr-k5P9dpA4DX_AVp9k-81" vertex="1">
          <mxGeometry y="336" width="290" height="26" as="geometry" />
        </mxCell>
        <mxCell id="MPr-k5P9dpA4DX_AVp9k-116" value="MovableRectangle" style="swimlane;fontStyle=1;align=center;verticalAlign=top;childLayout=stackLayout;horizontal=1;startSize=26;horizontalStack=0;resizeParent=1;resizeParentMax=0;resizeLast=0;collapsible=1;marginBottom=0;fillColor=none;gradientColor=none;" parent="WIyWlLk6GJQsqaUBKTNV-1" vertex="1">
          <mxGeometry x="499" y="880" width="290" height="356" as="geometry" />
        </mxCell>
        <mxCell id="MPr-k5P9dpA4DX_AVp9k-117" value="#leftTopPoint:MovablePoint" style="text;strokeColor=none;fillColor=none;align=left;verticalAlign=top;spacingLeft=4;spacingRight=4;overflow=hidden;rotatable=0;points=[[0,0.5],[1,0.5]];portConstraint=eastwest;" parent="MPr-k5P9dpA4DX_AVp9k-116" vertex="1">
          <mxGeometry y="26" width="290" height="26" as="geometry" />
        </mxCell>
        <mxCell id="MPr-k5P9dpA4DX_AVp9k-120" value="#rightBotPoint:MovablePoint" style="text;strokeColor=none;fillColor=none;align=left;verticalAlign=top;spacingLeft=4;spacingRight=4;overflow=hidden;rotatable=0;points=[[0,0.5],[1,0.5]];portConstraint=eastwest;" parent="MPr-k5P9dpA4DX_AVp9k-116" vertex="1">
          <mxGeometry y="52" width="290" height="26" as="geometry" />
        </mxCell>
        <mxCell id="MPr-k5P9dpA4DX_AVp9k-118" value="" style="line;strokeWidth=1;fillColor=none;align=left;verticalAlign=middle;spacingTop=-1;spacingLeft=3;spacingRight=3;rotatable=0;labelPosition=right;points=[];portConstraint=eastwest;" parent="MPr-k5P9dpA4DX_AVp9k-116" vertex="1">
          <mxGeometry y="78" width="290" height="8" as="geometry" />
        </mxCell>
        <mxCell id="MPr-k5P9dpA4DX_AVp9k-119" value="+MovableRectangle()" style="text;strokeColor=none;fillColor=none;align=left;verticalAlign=top;spacingLeft=4;spacingRight=4;overflow=hidden;rotatable=0;points=[[0,0.5],[1,0.5]];portConstraint=eastwest;" parent="MPr-k5P9dpA4DX_AVp9k-116" vertex="1">
          <mxGeometry y="86" width="290" height="26" as="geometry" />
        </mxCell>
        <mxCell id="MPr-k5P9dpA4DX_AVp9k-121" value="+MovableRectangle(leftTopPoint:MovablePoint,&#xa;     rightBotPoint:MovablePoint)&#xa;" style="text;strokeColor=none;fillColor=none;align=left;verticalAlign=top;spacingLeft=4;spacingRight=4;overflow=hidden;rotatable=0;points=[[0,0.5],[1,0.5]];portConstraint=eastwest;" parent="MPr-k5P9dpA4DX_AVp9k-116" vertex="1">
          <mxGeometry y="112" width="290" height="38" as="geometry" />
        </mxCell>
        <mxCell id="MPr-k5P9dpA4DX_AVp9k-122" value="+MovableRectangle(leftTopPoint:MovablePoint,&#xa;     rightBotPoint:MovablePoint, color:String,&#xa;     filled:boolean)&#xa;" style="text;strokeColor=none;fillColor=none;align=left;verticalAlign=top;spacingLeft=4;spacingRight=4;overflow=hidden;rotatable=0;points=[[0,0.5],[1,0.5]];portConstraint=eastwest;" parent="MPr-k5P9dpA4DX_AVp9k-116" vertex="1">
          <mxGeometry y="150" width="290" height="50" as="geometry" />
        </mxCell>
        <mxCell id="MPr-k5P9dpA4DX_AVp9k-123" value="+getLeftTopPoint():MovablePoint" style="text;strokeColor=none;fillColor=none;align=left;verticalAlign=top;spacingLeft=4;spacingRight=4;overflow=hidden;rotatable=0;points=[[0,0.5],[1,0.5]];portConstraint=eastwest;" parent="MPr-k5P9dpA4DX_AVp9k-116" vertex="1">
          <mxGeometry y="200" width="290" height="26" as="geometry" />
        </mxCell>
        <mxCell id="U63hFPqFCAQ0QtxEr_se-0" value="+setLeftTopPoint(leftTopPoint:MovablePoint):void" style="text;strokeColor=none;fillColor=none;align=left;verticalAlign=top;spacingLeft=4;spacingRight=4;overflow=hidden;rotatable=0;points=[[0,0.5],[1,0.5]];portConstraint=eastwest;" vertex="1" parent="MPr-k5P9dpA4DX_AVp9k-116">
          <mxGeometry y="226" width="290" height="26" as="geometry" />
        </mxCell>
        <mxCell id="U63hFPqFCAQ0QtxEr_se-1" value="+getRightBotPoint():MovablePoint" style="text;strokeColor=none;fillColor=none;align=left;verticalAlign=top;spacingLeft=4;spacingRight=4;overflow=hidden;rotatable=0;points=[[0,0.5],[1,0.5]];portConstraint=eastwest;" vertex="1" parent="MPr-k5P9dpA4DX_AVp9k-116">
          <mxGeometry y="252" width="290" height="26" as="geometry" />
        </mxCell>
        <mxCell id="U63hFPqFCAQ0QtxEr_se-2" value="+setRightBotPoint(rightBotPoint:MovablePoint):void" style="text;strokeColor=none;fillColor=none;align=left;verticalAlign=top;spacingLeft=4;spacingRight=4;overflow=hidden;rotatable=0;points=[[0,0.5],[1,0.5]];portConstraint=eastwest;" vertex="1" parent="MPr-k5P9dpA4DX_AVp9k-116">
          <mxGeometry y="278" width="290" height="26" as="geometry" />
        </mxCell>
        <mxCell id="U63hFPqFCAQ0QtxEr_se-3" value="+move(velocity:Vector2d):void" style="text;strokeColor=none;fillColor=none;align=left;verticalAlign=top;spacingLeft=4;spacingRight=4;overflow=hidden;rotatable=0;points=[[0,0.5],[1,0.5]];portConstraint=eastwest;" vertex="1" parent="MPr-k5P9dpA4DX_AVp9k-116">
          <mxGeometry y="304" width="290" height="26" as="geometry" />
        </mxCell>
        <mxCell id="MPr-k5P9dpA4DX_AVp9k-124" value="+toString():String()" style="text;strokeColor=none;fillColor=none;align=left;verticalAlign=top;spacingLeft=4;spacingRight=4;overflow=hidden;rotatable=0;points=[[0,0.5],[1,0.5]];portConstraint=eastwest;" parent="MPr-k5P9dpA4DX_AVp9k-116" vertex="1">
          <mxGeometry y="330" width="290" height="26" as="geometry" />
        </mxCell>
        <mxCell id="MPr-k5P9dpA4DX_AVp9k-9" value="Point" style="swimlane;fontStyle=1;align=center;verticalAlign=top;childLayout=stackLayout;horizontal=1;startSize=26;horizontalStack=0;resizeParent=1;resizeParentMax=0;resizeLast=0;collapsible=1;marginBottom=0;" parent="WIyWlLk6GJQsqaUBKTNV-1" vertex="1">
          <mxGeometry x="48" y="1170" width="210" height="280" as="geometry" />
        </mxCell>
        <mxCell id="MPr-k5P9dpA4DX_AVp9k-10" value="#x:double" style="text;strokeColor=none;fillColor=none;align=left;verticalAlign=top;spacingLeft=4;spacingRight=4;overflow=hidden;rotatable=0;points=[[0,0.5],[1,0.5]];portConstraint=eastwest;" parent="MPr-k5P9dpA4DX_AVp9k-9" vertex="1">
          <mxGeometry y="26" width="210" height="26" as="geometry" />
        </mxCell>
        <mxCell id="MPr-k5P9dpA4DX_AVp9k-13" value="#y:double" style="text;strokeColor=none;fillColor=none;align=left;verticalAlign=top;spacingLeft=4;spacingRight=4;overflow=hidden;rotatable=0;points=[[0,0.5],[1,0.5]];portConstraint=eastwest;" parent="MPr-k5P9dpA4DX_AVp9k-9" vertex="1">
          <mxGeometry y="52" width="210" height="26" as="geometry" />
        </mxCell>
        <mxCell id="MPr-k5P9dpA4DX_AVp9k-11" value="" style="line;strokeWidth=1;fillColor=none;align=left;verticalAlign=middle;spacingTop=-1;spacingLeft=3;spacingRight=3;rotatable=0;labelPosition=right;points=[];portConstraint=eastwest;" parent="MPr-k5P9dpA4DX_AVp9k-9" vertex="1">
          <mxGeometry y="78" width="210" height="8" as="geometry" />
        </mxCell>
        <mxCell id="MPr-k5P9dpA4DX_AVp9k-12" value="+Public()" style="text;strokeColor=none;fillColor=none;align=left;verticalAlign=top;spacingLeft=4;spacingRight=4;overflow=hidden;rotatable=0;points=[[0,0.5],[1,0.5]];portConstraint=eastwest;" parent="MPr-k5P9dpA4DX_AVp9k-9" vertex="1">
          <mxGeometry y="86" width="210" height="26" as="geometry" />
        </mxCell>
        <mxCell id="MPr-k5P9dpA4DX_AVp9k-14" value="+Public(x:double, y:double)" style="text;strokeColor=none;fillColor=none;align=left;verticalAlign=top;spacingLeft=4;spacingRight=4;overflow=hidden;rotatable=0;points=[[0,0.5],[1,0.5]];portConstraint=eastwest;" parent="MPr-k5P9dpA4DX_AVp9k-9" vertex="1">
          <mxGeometry y="112" width="210" height="28" as="geometry" />
        </mxCell>
        <mxCell id="MPr-k5P9dpA4DX_AVp9k-15" value="+getX():double" style="text;strokeColor=none;fillColor=none;align=left;verticalAlign=top;spacingLeft=4;spacingRight=4;overflow=hidden;rotatable=0;points=[[0,0.5],[1,0.5]];portConstraint=eastwest;" parent="MPr-k5P9dpA4DX_AVp9k-9" vertex="1">
          <mxGeometry y="140" width="210" height="28" as="geometry" />
        </mxCell>
        <mxCell id="MPr-k5P9dpA4DX_AVp9k-16" value="+setX(x:double):void" style="text;strokeColor=none;fillColor=none;align=left;verticalAlign=top;spacingLeft=4;spacingRight=4;overflow=hidden;rotatable=0;points=[[0,0.5],[1,0.5]];portConstraint=eastwest;" parent="MPr-k5P9dpA4DX_AVp9k-9" vertex="1">
          <mxGeometry y="168" width="210" height="28" as="geometry" />
        </mxCell>
        <mxCell id="MPr-k5P9dpA4DX_AVp9k-17" value="+getY():double" style="text;strokeColor=none;fillColor=none;align=left;verticalAlign=top;spacingLeft=4;spacingRight=4;overflow=hidden;rotatable=0;points=[[0,0.5],[1,0.5]];portConstraint=eastwest;" parent="MPr-k5P9dpA4DX_AVp9k-9" vertex="1">
          <mxGeometry y="196" width="210" height="28" as="geometry" />
        </mxCell>
        <mxCell id="MPr-k5P9dpA4DX_AVp9k-18" value="+setY(y:double):void" style="text;strokeColor=none;fillColor=none;align=left;verticalAlign=top;spacingLeft=4;spacingRight=4;overflow=hidden;rotatable=0;points=[[0,0.5],[1,0.5]];portConstraint=eastwest;" parent="MPr-k5P9dpA4DX_AVp9k-9" vertex="1">
          <mxGeometry y="224" width="210" height="28" as="geometry" />
        </mxCell>
        <mxCell id="MPr-k5P9dpA4DX_AVp9k-19" value="+toString():String" style="text;strokeColor=none;fillColor=none;align=left;verticalAlign=top;spacingLeft=4;spacingRight=4;overflow=hidden;rotatable=0;points=[[0,0.5],[1,0.5]];portConstraint=eastwest;" parent="MPr-k5P9dpA4DX_AVp9k-9" vertex="1">
          <mxGeometry y="252" width="210" height="28" as="geometry" />
        </mxCell>
        <mxCell id="MPr-k5P9dpA4DX_AVp9k-20" value="MovablePoint" style="swimlane;fontStyle=1;align=center;verticalAlign=top;childLayout=stackLayout;horizontal=1;startSize=26;horizontalStack=0;resizeParent=1;resizeParentMax=0;resizeLast=0;collapsible=1;marginBottom=0;" parent="WIyWlLk6GJQsqaUBKTNV-1" vertex="1">
          <mxGeometry x="48" y="1500" width="210" height="138" as="geometry" />
        </mxCell>
        <mxCell id="MPr-k5P9dpA4DX_AVp9k-22" value="" style="line;strokeWidth=1;fillColor=none;align=left;verticalAlign=middle;spacingTop=-1;spacingLeft=3;spacingRight=3;rotatable=0;labelPosition=right;points=[];portConstraint=eastwest;" parent="MPr-k5P9dpA4DX_AVp9k-20" vertex="1">
          <mxGeometry y="26" width="210" height="8" as="geometry" />
        </mxCell>
        <mxCell id="MPr-k5P9dpA4DX_AVp9k-23" value="+MovablePoint()" style="text;strokeColor=none;fillColor=none;align=left;verticalAlign=top;spacingLeft=4;spacingRight=4;overflow=hidden;rotatable=0;points=[[0,0.5],[1,0.5]];portConstraint=eastwest;" parent="MPr-k5P9dpA4DX_AVp9k-20" vertex="1">
          <mxGeometry y="34" width="210" height="26" as="geometry" />
        </mxCell>
        <mxCell id="MPr-k5P9dpA4DX_AVp9k-25" value="+MovablePoint(x:double,y:double)" style="text;strokeColor=none;fillColor=none;align=left;verticalAlign=top;spacingLeft=4;spacingRight=4;overflow=hidden;rotatable=0;points=[[0,0.5],[1,0.5]];portConstraint=eastwest;" parent="MPr-k5P9dpA4DX_AVp9k-20" vertex="1">
          <mxGeometry y="60" width="210" height="26" as="geometry" />
        </mxCell>
        <mxCell id="MPr-k5P9dpA4DX_AVp9k-26" value="+move(velocity:Vector2d):void" style="text;strokeColor=none;fillColor=none;align=left;verticalAlign=top;spacingLeft=4;spacingRight=4;overflow=hidden;rotatable=0;points=[[0,0.5],[1,0.5]];portConstraint=eastwest;" parent="MPr-k5P9dpA4DX_AVp9k-20" vertex="1">
          <mxGeometry y="86" width="210" height="26" as="geometry" />
        </mxCell>
        <mxCell id="MPr-k5P9dpA4DX_AVp9k-27" value="+toString():String" style="text;strokeColor=none;fillColor=none;align=left;verticalAlign=top;spacingLeft=4;spacingRight=4;overflow=hidden;rotatable=0;points=[[0,0.5],[1,0.5]];portConstraint=eastwest;" parent="MPr-k5P9dpA4DX_AVp9k-20" vertex="1">
          <mxGeometry y="112" width="210" height="26" as="geometry" />
        </mxCell>
        <mxCell id="MPr-k5P9dpA4DX_AVp9k-28" value="Vector2d" style="swimlane;fontStyle=1;align=center;verticalAlign=top;childLayout=stackLayout;horizontal=1;startSize=26;horizontalStack=0;resizeParent=1;resizeParentMax=0;resizeLast=0;collapsible=1;marginBottom=0;" parent="WIyWlLk6GJQsqaUBKTNV-1" vertex="1">
          <mxGeometry x="50" y="1670" width="240" height="346" as="geometry" />
        </mxCell>
        <mxCell id="MPr-k5P9dpA4DX_AVp9k-29" value="#Point origin" style="text;strokeColor=none;fillColor=none;align=left;verticalAlign=top;spacingLeft=4;spacingRight=4;overflow=hidden;rotatable=0;points=[[0,0.5],[1,0.5]];portConstraint=eastwest;" parent="MPr-k5P9dpA4DX_AVp9k-28" vertex="1">
          <mxGeometry y="26" width="240" height="26" as="geometry" />
        </mxCell>
        <mxCell id="MPr-k5P9dpA4DX_AVp9k-36" value="#Point tip" style="text;strokeColor=none;fillColor=none;align=left;verticalAlign=top;spacingLeft=4;spacingRight=4;overflow=hidden;rotatable=0;points=[[0,0.5],[1,0.5]];portConstraint=eastwest;" parent="MPr-k5P9dpA4DX_AVp9k-28" vertex="1">
          <mxGeometry y="52" width="240" height="26" as="geometry" />
        </mxCell>
        <mxCell id="MPr-k5P9dpA4DX_AVp9k-30" value="" style="line;strokeWidth=1;fillColor=none;align=left;verticalAlign=middle;spacingTop=-1;spacingLeft=3;spacingRight=3;rotatable=0;labelPosition=right;points=[];portConstraint=eastwest;" parent="MPr-k5P9dpA4DX_AVp9k-28" vertex="1">
          <mxGeometry y="78" width="240" height="8" as="geometry" />
        </mxCell>
        <mxCell id="MPr-k5P9dpA4DX_AVp9k-31" value="+Vector2d()" style="text;strokeColor=none;fillColor=none;align=left;verticalAlign=top;spacingLeft=4;spacingRight=4;overflow=hidden;rotatable=0;points=[[0,0.5],[1,0.5]];portConstraint=eastwest;" parent="MPr-k5P9dpA4DX_AVp9k-28" vertex="1">
          <mxGeometry y="86" width="240" height="26" as="geometry" />
        </mxCell>
        <mxCell id="MPr-k5P9dpA4DX_AVp9k-37" value="+Vector2d(origin:Point, tip:Point)" style="text;strokeColor=none;fillColor=none;align=left;verticalAlign=top;spacingLeft=4;spacingRight=4;overflow=hidden;rotatable=0;points=[[0,0.5],[1,0.5]];portConstraint=eastwest;" parent="MPr-k5P9dpA4DX_AVp9k-28" vertex="1">
          <mxGeometry y="112" width="240" height="26" as="geometry" />
        </mxCell>
        <mxCell id="MPr-k5P9dpA4DX_AVp9k-39" value="+getOrigin():Point" style="text;strokeColor=none;fillColor=none;align=left;verticalAlign=top;spacingLeft=4;spacingRight=4;overflow=hidden;rotatable=0;points=[[0,0.5],[1,0.5]];portConstraint=eastwest;" parent="MPr-k5P9dpA4DX_AVp9k-28" vertex="1">
          <mxGeometry y="138" width="240" height="26" as="geometry" />
        </mxCell>
        <mxCell id="MPr-k5P9dpA4DX_AVp9k-40" value="+setOrigin(origin:Point):void" style="text;strokeColor=none;fillColor=none;align=left;verticalAlign=top;spacingLeft=4;spacingRight=4;overflow=hidden;rotatable=0;points=[[0,0.5],[1,0.5]];portConstraint=eastwest;" parent="MPr-k5P9dpA4DX_AVp9k-28" vertex="1">
          <mxGeometry y="164" width="240" height="26" as="geometry" />
        </mxCell>
        <mxCell id="MPr-k5P9dpA4DX_AVp9k-41" value="+getTip():Point" style="text;strokeColor=none;fillColor=none;align=left;verticalAlign=top;spacingLeft=4;spacingRight=4;overflow=hidden;rotatable=0;points=[[0,0.5],[1,0.5]];portConstraint=eastwest;" parent="MPr-k5P9dpA4DX_AVp9k-28" vertex="1">
          <mxGeometry y="190" width="240" height="26" as="geometry" />
        </mxCell>
        <mxCell id="MPr-k5P9dpA4DX_AVp9k-42" value="+addVector(vec:Vector2d):void" style="text;strokeColor=none;fillColor=none;align=left;verticalAlign=top;spacingLeft=4;spacingRight=4;overflow=hidden;rotatable=0;points=[[0,0.5],[1,0.5]];portConstraint=eastwest;" parent="MPr-k5P9dpA4DX_AVp9k-28" vertex="1">
          <mxGeometry y="216" width="240" height="26" as="geometry" />
        </mxCell>
        <mxCell id="MPr-k5P9dpA4DX_AVp9k-43" value="+length():double" style="text;strokeColor=none;fillColor=none;align=left;verticalAlign=top;spacingLeft=4;spacingRight=4;overflow=hidden;rotatable=0;points=[[0,0.5],[1,0.5]];portConstraint=eastwest;" parent="MPr-k5P9dpA4DX_AVp9k-28" vertex="1">
          <mxGeometry y="242" width="240" height="26" as="geometry" />
        </mxCell>
        <mxCell id="MPr-k5P9dpA4DX_AVp9k-44" value="+dotProduct(vec:Vector2d):double" style="text;strokeColor=none;fillColor=none;align=left;verticalAlign=top;spacingLeft=4;spacingRight=4;overflow=hidden;rotatable=0;points=[[0,0.5],[1,0.5]];portConstraint=eastwest;" parent="MPr-k5P9dpA4DX_AVp9k-28" vertex="1">
          <mxGeometry y="268" width="240" height="26" as="geometry" />
        </mxCell>
        <mxCell id="MPr-k5P9dpA4DX_AVp9k-45" value="+getAngleWithVec(vec:Vector2d):double" style="text;strokeColor=none;fillColor=none;align=left;verticalAlign=top;spacingLeft=4;spacingRight=4;overflow=hidden;rotatable=0;points=[[0,0.5],[1,0.5]];portConstraint=eastwest;" parent="MPr-k5P9dpA4DX_AVp9k-28" vertex="1">
          <mxGeometry y="294" width="240" height="26" as="geometry" />
        </mxCell>
        <mxCell id="MPr-k5P9dpA4DX_AVp9k-46" value="+toString():String" style="text;strokeColor=none;fillColor=none;align=left;verticalAlign=top;spacingLeft=4;spacingRight=4;overflow=hidden;rotatable=0;points=[[0,0.5],[1,0.5]];portConstraint=eastwest;" parent="MPr-k5P9dpA4DX_AVp9k-28" vertex="1">
          <mxGeometry y="320" width="240" height="26" as="geometry" />
        </mxCell>
        <mxCell id="MPr-k5P9dpA4DX_AVp9k-126" value="" style="endArrow=block;dashed=1;endFill=0;endSize=12;html=1;strokeWidth=1;exitX=0.5;exitY=0;exitDx=0;exitDy=0;entryX=0.448;entryY=0.995;entryDx=0;entryDy=0;entryPerimeter=0;" parent="WIyWlLk6GJQsqaUBKTNV-1" source="MPr-k5P9dpA4DX_AVp9k-48" target="MPr-k5P9dpA4DX_AVp9k-124" edge="1">
          <mxGeometry width="160" relative="1" as="geometry">
            <mxPoint x="500" y="1260" as="sourcePoint" />
            <mxPoint x="660" y="1260" as="targetPoint" />
          </mxGeometry>
        </mxCell>
      </root>
    </mxGraphModel>
  </diagram>
</mxfile>
